<?xml version="1.0" standalone="no"?>
<!DOCTYPE svg PUBLIC "-//W3C//DTD SVG 20010904//EN"
 "http://www.w3.org/TR/2001/REC-SVG-20010904/DTD/svg10.dtd">
<svg version="1.0" xmlns="http://www.w3.org/2000/svg"
 width="743.000000pt" height="399.000000pt" viewBox="0 0 743.000000 399.000000"
 preserveAspectRatio="xMidYMid meet">

<g transform="translate(0.000000,399.000000) scale(0.100000,-0.100000)"
fill="#000000" stroke="none">
<path d="M1282 2623 c2 -27 8 -39 21 -41 14 -3 17 4 17 37 0 35 -3 41 -21 41
-17 0 -20 -5 -17 -37z"/>
<path d="M886 2632 c-8 -13 23 -52 40 -52 17 0 18 19 0 43 -14 18 -32 22 -40
9z"/>
<path d="M1677 2611 c-14 -25 -15 -30 -2 -34 15 -6 59 45 48 57 -13 13 -29 5
-46 -23z"/>
<path d="M963 2453 c-16 -21 -46 -62 -67 -91 l-38 -53 43 -62 c24 -34 58 -82
77 -107 18 -25 47 -64 65 -88 18 -24 39 -51 47 -60 8 -10 21 -28 28 -42 7 -14
29 -48 50 -76 20 -28 56 -79 79 -112 24 -33 47 -63 52 -67 6 -3 47 47 93 112
46 65 93 131 105 148 12 16 34 50 49 75 15 25 43 62 61 83 18 20 33 42 33 48
0 6 6 17 13 24 49 55 87 111 87 128 0 7 -28 49 -61 95 l-60 82 -314 0 -313 0
-29 -37z m108 -92 c16 -25 29 -49 29 -53 0 -11 -188 -10 -195 1 -3 5 -1 12 5
16 6 3 29 34 51 67 l42 61 19 -24 c11 -13 33 -44 49 -68z m179 83 c0 -14 -93
-133 -100 -129 -5 3 -29 35 -54 70 l-45 65 99 0 c55 0 100 -3 100 -6z m114
-74 l47 -65 -50 -3 c-28 -2 -76 -2 -106 0 l-56 3 51 74 c29 40 55 69 60 65 4
-5 28 -38 54 -74z m186 74 c0 -8 -90 -134 -96 -134 -7 0 -94 121 -94 131 0 5
43 9 95 9 52 0 95 -3 95 -6z m106 -65 c24 -35 44 -67 44 -71 0 -9 -184 -11
-193 -2 -3 3 17 37 45 76 28 38 52 67 55 64 2 -2 24 -32 49 -67z m-491 -199
c12 -47 27 -98 33 -114 7 -16 11 -34 9 -40 -3 -6 0 -20 6 -31 9 -17 37 -145
37 -168 0 -5 -17 13 -38 40 -34 44 -50 66 -92 128 -8 13 -23 33 -33 46 -25 35
-142 202 -151 217 -6 10 15 12 101 10 l108 -3 20 -85z m261 68 c-3 -13 -13
-57 -22 -98 -9 -41 -20 -84 -25 -95 -5 -11 -18 -58 -29 -105 -47 -188 -45
-187 -70 -80 -7 30 -17 62 -21 70 -10 18 -38 128 -49 191 -5 26 -13 64 -19 85
-6 22 -11 42 -11 47 0 4 57 7 126 7 126 0 126 0 120 -22z m235 -11 c-10 -18
-30 -46 -45 -62 -14 -15 -26 -33 -26 -40 0 -6 -11 -22 -25 -35 -14 -13 -25
-29 -25 -35 0 -6 -11 -22 -24 -35 -14 -12 -53 -63 -87 -111 -34 -49 -64 -87
-66 -85 -5 5 32 175 52 236 8 25 21 74 30 110 9 36 18 71 20 78 3 8 34 12 110
12 l105 0 -19 -33z"/>
<path d="M2390 2305 c-42 -19 -77 -51 -95 -85 -15 -29 -55 -219 -55 -262 0
-139 194 -144 266 -6 21 41 18 48 -25 48 -30 0 -42 -5 -55 -26 -36 -54 -96
-49 -96 9 1 59 37 207 56 228 12 13 28 19 48 17 25 -2 32 -8 34 -30 3 -26 7
-28 48 -28 l44 0 0 40 c0 83 -88 132 -170 95z"/>
<path d="M2655 2308 c-6 -16 -95 -438 -95 -450 0 -14 250 -10 254 5 3 6 7 24
10 40 l6 27 -78 0 c-43 0 -81 2 -84 5 -3 3 11 88 32 188 21 100 36 185 33 190
-7 12 -73 8 -78 -5z"/>
<path d="M3060 2305 c-38 -17 -76 -50 -91 -77 -13 -25 -59 -234 -59 -270 0
-84 79 -130 167 -97 36 13 89 64 102 98 16 41 51 217 51 256 0 78 -90 125
-170 90z m78 -104 c5 -35 -28 -202 -45 -229 -31 -50 -93 -45 -93 6 0 50 41
216 58 235 24 27 76 19 80 -12z"/>
<path d="M3326 2312 c-2 -4 -7 -24 -11 -45 l-7 -37 47 0 47 0 -7 -37 c-3 -21
-21 -105 -39 -188 l-32 -150 39 -3 c21 -2 41 -1 43 1 3 2 20 78 39 168 19 90
37 174 40 187 5 19 12 22 50 22 40 0 47 3 55 26 6 14 10 34 10 45 0 18 -8 19
-134 19 -74 0 -137 -3 -140 -8z"/>
<path d="M3670 2298 c-5 -13 -23 -93 -40 -178 -17 -85 -37 -181 -45 -212 l-13
-58 43 0 43 0 21 95 22 95 54 0 53 0 -19 -82 c-25 -113 -26 -110 23 -106 l42
3 43 205 c58 271 57 255 8 255 l-40 0 -20 -92 -19 -93 -53 0 c-29 0 -53 3 -53
8 1 4 7 36 15 72 23 102 21 110 -20 110 -27 0 -38 -5 -45 -22z"/>
<path d="M4264 2301 c-48 -22 -80 -59 -95 -111 -22 -72 9 -124 85 -143 59 -15
75 -35 58 -71 -23 -52 -97 -54 -104 -4 -2 17 -11 24 -31 26 -55 6 -70 -29 -40
-92 27 -57 102 -72 173 -36 122 62 120 235 -3 255 -60 11 -76 46 -37 85 31 31
69 26 83 -10 10 -26 16 -30 49 -30 29 0 38 4 40 18 5 61 -18 105 -64 121 -43
15 -67 13 -114 -8z"/>
<path d="M4615 2302 c-45 -21 -92 -71 -100 -105 -49 -232 -51 -249 -35 -288
39 -94 198 -69 255 41 13 25 43 175 52 256 10 86 -83 138 -172 96z m82 -88
c13 -34 -28 -227 -53 -255 -39 -43 -103 -15 -89 39 4 15 15 64 24 109 10 45
25 91 36 103 22 25 73 27 82 4z"/>
<path d="M4885 2308 c-11 -31 -23 -103 -19 -110 3 -4 0 -16 -5 -27 -9 -16 -71
-293 -71 -315 0 -9 248 -7 253 2 3 4 8 22 12 40 l7 32 -80 0 c-43 0 -81 2 -84
5 -6 6 37 239 58 313 8 29 12 57 9 62 -9 14 -75 12 -80 -2z"/>
<path d="M5212 2308 c-5 -7 -12 -29 -15 -48 -2 -19 -16 -91 -31 -159 -30 -143
-31 -162 -12 -200 45 -86 196 -57 251 49 11 21 74 304 79 350 1 17 -61 27 -75
13 -5 -5 -24 -82 -43 -171 -19 -90 -40 -170 -47 -178 -33 -40 -89 -33 -89 10
0 12 14 90 30 172 17 82 28 154 25 161 -6 17 -60 17 -73 1z"/>
<path d="M5556 2312 c-2 -4 -7 -24 -11 -45 l-7 -37 47 0 47 0 -7 -39 c-4 -22
-21 -107 -39 -190 l-32 -151 42 0 42 0 17 73 c9 39 25 115 36 167 31 153 24
140 74 140 48 0 65 16 65 64 l0 26 -134 0 c-74 0 -137 -3 -140 -8z"/>
<path d="M5901 2298 c-5 -13 -27 -115 -51 -228 -23 -113 -44 -208 -46 -212 -3
-5 15 -8 40 -8 l44 0 21 93 c42 185 77 368 72 372 -2 3 -19 5 -38 5 -26 0 -35
-5 -42 -22z"/>
<path d="M6149 2310 c-41 -12 -77 -39 -98 -74 -23 -37 -75 -278 -66 -305 37
-119 213 -102 268 26 9 21 26 87 37 146 18 89 19 114 10 143 -20 59 -81 85
-151 64z m61 -95 c10 -12 9 -33 -5 -108 -10 -50 -24 -107 -31 -125 -20 -49
-86 -64 -99 -22 -9 28 43 243 62 258 23 16 58 15 73 -3z"/>
<path d="M6400 2298 c-5 -13 -20 -79 -34 -148 -14 -69 -34 -164 -45 -212 l-19
-88 43 0 43 0 17 78 c9 42 21 95 28 117 l10 40 13 -60 c7 -33 18 -86 24 -117
l11 -58 44 0 c36 0 45 4 50 22 15 46 92 433 88 441 -7 12 -73 8 -79 -6 -2 -7
-15 -62 -28 -122 -14 -61 -25 -107 -25 -102 -2 13 -42 201 -47 220 -4 12 -16
17 -45 17 -31 0 -41 -5 -49 -22z"/>
<path d="M695 2300 c-11 -18 10 -32 41 -28 40 4 38 32 -3 36 -17 2 -34 -2 -38
-8z"/>
<path d="M1845 2300 c-4 -7 -3 -16 1 -20 13 -12 66 0 61 14 -5 15 -53 20 -62
6z"/>
<path d="M905 2010 c-10 -11 -15 -23 -12 -26 9 -10 59 25 52 36 -9 15 -20 12
-40 -10z"/>
<path d="M1660 2014 c0 -18 27 -43 48 -44 20 0 14 28 -10 44 -29 20 -38 20
-38 0z"/>
<path d="M1075 1760 c-12 -14 -15 -24 -8 -31 12 -12 66 27 58 42 -10 15 -31
10 -50 -11z"/>
<path d="M1485 1770 c-6 -10 31 -49 47 -50 19 -1 19 25 -2 42 -25 21 -36 22
-45 8z"/>
<path d="M1292 1548 c2 -24 8 -43 13 -43 6 0 11 19 13 43 3 33 0 42 -13 42
-13 0 -16 -9 -13 -42z"/>
</g>
</svg>
